<svg xmlns="http://www.w3.org/2000/svg" viewBox="0 0 64 64" role="img" aria-label="Garvit Singh">
  <rect width="64" height="64" rx="14" fill="#0f172a" />
  <path
    fill="#f8fafc"
    d="M32.8 51.2c-5.9 0-10.7-1.8-14.4-5.3-3.7-3.6-5.6-8.2-5.6-14 0-5.9 1.9-10.6 5.6-14.2 3.8-3.6 8.6-5.4 14.6-5.4 3.6 0 6.7.7 9.4 2.1 2.7 1.4 4.8 3.4 6.3 6l-6.6 3.8c-.9-1.6-2.1-2.9-3.7-3.8-1.6-.9-3.4-1.3-5.5-1.3-3.6 0-6.5 1.2-8.7 3.5-2.2 2.3-3.3 5.4-3.3 9.2 0 3.9 1.1 7 3.3 9.3 2.2 2.3 5.1 3.4 8.8 3.4 3.1 0 5.6-.7 7.4-2.1 1.9-1.4 3.1-3.4 3.6-5.9H32.4v-6.8h19.3v3.1c0 5.5-1.7 9.9-5.1 13.3-3.4 3.4-8 5.1-13.8 5.1Z"
  />
  <path fill="#22c55e" d="M45.1 48.8 51.8 42v9.2h-9.2l2.5-2.4Z" />
</svg>
