<svg xmlns="http://www.w3.org/2000/svg" width="1200" height="675" viewBox="0 0 1200 675" role="img" aria-labelledby="title desc">
  <title id="title">BeatHub API project cover</title>
  <desc id="desc">Abstract dark cover art for BeatHub API, a backend music platform API project.</desc>
  <rect width="1200" height="675" fill="#090b14"/>
  <path d="M128 124H1072V551H128Z" fill="#111827" opacity="0.88"/>
  <path d="M192 236H1008M192 338H1008M192 440H1008" stroke="#1f2937" stroke-width="3"/>
  <circle cx="260" cy="236" r="56" fill="#60a5fa" opacity="0.18"/>
  <circle cx="260" cy="338" r="56" fill="#f472b6" opacity="0.16"/>
  <circle cx="260" cy="440" r="56" fill="#34d399" opacity="0.16"/>
  <path d="M252 205V260C252 278 232 288 217 278C200 267 203 241 223 238C231 237 238 239 244 243V205H252Z" fill="#93c5fd"/>
  <rect x="370" y="206" width="368" height="26" rx="13" fill="#93c5fd" opacity="0.82"/>
  <rect x="370" y="250" width="220" height="18" rx="9" fill="#475569"/>
  <rect x="370" y="308" width="456" height="26" rx="13" fill="#f9a8d4" opacity="0.82"/>
  <rect x="370" y="352" width="278" height="18" rx="9" fill="#475569"/>
  <rect x="370" y="410" width="322" height="26" rx="13" fill="#6ee7b7" opacity="0.82"/>
  <rect x="370" y="454" width="408" height="18" rx="9" fill="#475569"/>
  <rect x="812" y="168" width="164" height="64" rx="16" fill="#2563eb" opacity="0.22" stroke="#60a5fa" stroke-opacity="0.5" stroke-width="2"/>
  <text x="845" y="210" fill="#bfdbfe" font-family="Inter, Arial, sans-serif" font-size="26" font-weight="700">REST</text>
  <text x="176" y="170" fill="#f8fafc" font-family="Inter, Arial, sans-serif" font-size="46" font-weight="700">BeatHub API</text>
  <text x="176" y="530" fill="#94a3b8" font-family="Inter, Arial, sans-serif" font-size="28">Authentication, roles, docs, and containers</text>
</svg>
