<svg xmlns="http://www.w3.org/2000/svg" width="1200" height="675" viewBox="0 0 1200 675" role="img" aria-labelledby="title desc">
  <title id="title">Pravaah project cover</title>
  <desc id="desc">Abstract dark cover art for Pravaah, a clinic flow management project.</desc>
  <rect width="1200" height="675" fill="#07111f"/>
  <path d="M0 470C170 395 270 515 430 435C590 355 675 235 860 285C1010 326 1080 272 1200 200V675H0Z" fill="#0f766e" opacity="0.24"/>
  <path d="M0 520C155 450 285 560 455 475C640 383 735 330 925 375C1058 407 1128 360 1200 318V675H0Z" fill="#22d3ee" opacity="0.12"/>
  <rect x="92" y="86" width="1016" height="503" rx="32" fill="#0f172a" opacity="0.82"/>
  <rect x="132" y="130" width="270" height="64" rx="18" fill="#14b8a6" opacity="0.18"/>
  <rect x="132" y="226" width="250" height="250" rx="24" fill="#111827" stroke="#2dd4bf" stroke-opacity="0.45" stroke-width="2"/>
  <rect x="430" y="226" width="250" height="250" rx="24" fill="#111827" stroke="#38bdf8" stroke-opacity="0.35" stroke-width="2"/>
  <rect x="728" y="226" width="250" height="250" rx="24" fill="#111827" stroke="#a7f3d0" stroke-opacity="0.3" stroke-width="2"/>
  <circle cx="202" cy="304" r="34" fill="#2dd4bf" opacity="0.9"/>
  <path d="M260 294H338M260 334H318" stroke="#ccfbf1" stroke-width="14" stroke-linecap="round"/>
  <path d="M500 345H610M555 290V400" stroke="#67e8f9" stroke-width="18" stroke-linecap="round"/>
  <path d="M782 374C828 314 878 314 924 374" stroke="#a7f3d0" stroke-width="18" stroke-linecap="round" fill="none"/>
  <circle cx="782" cy="374" r="14" fill="#a7f3d0"/>
  <circle cx="924" cy="374" r="14" fill="#a7f3d0"/>
  <text x="132" y="174" fill="#e5f9f7" font-family="Inter, Arial, sans-serif" font-size="42" font-weight="700">Pravaah</text>
  <text x="132" y="536" fill="#94a3b8" font-family="Inter, Arial, sans-serif" font-size="28">Clinic flow, queues, and explainable risk</text>
</svg>
